<svg width="16" height="16" viewBox="0 0 16 16" fill="none" xmlns="http://www.w3.org/2000/svg">
<g clip-path="url(#clip0_4033_426)">
<path d="M16 11.352C16 14.264 14.264 16 11.352 16H10.4C9.96 16 9.6 15.64 9.6 15.2V10.584C9.6 10.368 9.77599 10.184 9.99199 10.184L11.4 10.16C11.512 10.152 11.608 10.072 11.632 9.96001L11.912 8.43201C11.936 8.28801 11.824 8.152 11.672 8.152L9.96799 8.176C9.74399 8.176 9.56801 8.00001 9.56001 7.78401L9.528 5.824C9.528 5.696 9.63199 5.58401 9.76799 5.58401L11.688 5.552C11.824 5.552 11.928 5.44801 11.928 5.31201L11.896 3.39199C11.896 3.25599 11.792 3.152 11.656 3.152L9.496 3.18401C8.168 3.20801 7.11201 4.296 7.13601 5.624L7.176 7.824C7.184 8.048 7.00801 8.22401 6.78401 8.23201L5.824 8.248C5.688 8.248 5.58401 8.35199 5.58401 8.48799L5.60801 10.008C5.60801 10.144 5.712 10.248 5.848 10.248L6.80801 10.232C7.03201 10.232 7.20799 10.408 7.21599 10.624L7.28799 15.184C7.29599 15.632 6.93599 16 6.48799 16H4.648C1.736 16 0 14.264 0 11.344V4.648C0 1.736 1.736 0 4.648 0H11.352C14.264 0 16 1.736 16 4.648V11.352Z" fill="#CFCFCF"/>
</g>
<defs>
<clipPath id="clip0_4033_426">
<rect width="16" height="16" fill="white"/>
</clipPath>
</defs>
</svg>
