<svg width="34" height="34" viewBox="0 0 34 34" fill="none" xmlns="http://www.w3.org/2000/svg">
<path fill-rule="evenodd" clip-rule="evenodd" d="M16.7418 9.14478C11.0948 9.14478 6.27223 12.5732 4.31836 17.4126C6.27223 22.252 11.0948 25.6804 16.7418 25.6804C22.3888 25.6804 27.2114 22.252 29.1652 17.4126C27.2114 12.5732 22.3888 9.14478 16.7418 9.14478ZM16.7418 22.9245C13.6247 22.9245 11.0948 20.4552 11.0948 17.4126C11.0948 14.37 13.6247 11.9007 16.7418 11.9007C19.859 11.9007 22.3888 14.37 22.3888 17.4126C22.3888 20.4552 19.859 22.9245 16.7418 22.9245ZM16.7418 14.1055C14.867 14.1055 13.3536 15.5827 13.3536 17.4126C13.3536 19.2425 14.867 20.7197 16.7418 20.7197C18.6166 20.7197 20.13 19.2425 20.13 17.4126C20.13 15.5827 18.6166 14.1055 16.7418 14.1055Z" fill="#898989"/>
</svg>
