<svg width="24" height="24" viewBox="0 0 24 24" fill="none" xmlns="http://www.w3.org/2000/svg">
<g clip-path="url(#clip0_61_951)">
<circle cx="12" cy="12" r="12" fill="#00356A"/>
<path d="M19.7214 13.6469L11.985 19L4.24868 13.6469C4.14496 13.5743 4.06803 13.4723 4.02889 13.3555C3.98974 13.2388 3.9904 13.1132 4.03075 12.9968L4.91698 10.3825L6.68945 5.18847C6.70664 5.14615 6.73401 5.10825 6.76935 5.07781C6.82691 5.02776 6.90206 5 6.98001 5C7.05797 5 7.13312 5.02776 7.19068 5.07781C7.228 5.11216 7.2555 5.15501 7.27058 5.2023L9.04305 10.3825H14.927L16.6995 5.18847C16.7167 5.14615 16.7441 5.10825 16.7794 5.07781C16.837 5.02776 16.9121 5 16.9901 5C17.068 5 17.1432 5.02776 17.2007 5.07781C17.2381 5.11216 17.2656 5.15501 17.2806 5.2023L19.0531 10.3963L19.9757 12.9968C20.0124 13.1168 20.0074 13.2448 19.9616 13.3619C19.9158 13.4791 19.8316 13.579 19.7214 13.6469V13.6469Z" stroke="white" stroke-linecap="round" stroke-linejoin="round"/>
</g>
<defs>
<clipPath id="clip0_61_951">
<rect width="24" height="24" fill="white"/>
</clipPath>
</defs>
</svg>
