<svg width="16" height="16" viewBox="0 0 16 16" fill="none" xmlns="http://www.w3.org/2000/svg">
<g clip-path="url(#clip0_4033_436)">
<path d="M15.3307 6.47703C15.1904 6.48575 15.0496 6.48575 14.9093 6.47703C14.149 6.47778 13.4005 6.30129 12.7317 5.96352C12.0628 5.62576 11.4947 5.1374 11.0787 4.54267V11.1335C11.0787 12.096 10.7733 13.0369 10.2011 13.8372C9.62892 14.6375 8.81566 15.2612 7.86414 15.6296C6.91263 15.9979 5.8656 16.0943 4.85548 15.9065C3.84536 15.7187 2.91752 15.2552 2.18926 14.5746C1.46101 13.894 0.965045 13.0269 0.764119 12.0829C0.563194 11.1389 0.666326 10.1604 1.06046 9.27114C1.45458 8.3819 2.12201 7.62186 2.97835 7.08712C3.83469 6.55238 4.84149 6.26696 5.87139 6.26696H6.18982V8.66521C6.0839 8.65612 5.97732 8.65612 5.87139 8.66521C5.16596 8.66521 4.48942 8.9271 3.9906 9.39328C3.49178 9.85945 3.21155 10.4917 3.21155 11.151C3.21155 11.8103 3.49178 12.4425 3.9906 12.9087C4.48942 13.3749 5.16596 13.6368 5.87139 13.6368C6.58474 13.6463 7.27363 13.3941 7.7902 12.9342C8.30677 12.4744 8.60981 11.8436 8.63425 11.1772V0H11.0881C11.2013 0.996591 11.6852 1.92443 12.4554 2.62181C13.2256 3.31918 14.2332 3.74187 15.3026 3.81619V6.44201" fill="#CFCFCF"/>
</g>
<defs>
<clipPath id="clip0_4033_436">
<rect width="16" height="16" fill="white"/>
</clipPath>
</defs>
</svg>
