<svg width="16" height="16" viewBox="0 0 16 16" fill="none" xmlns="http://www.w3.org/2000/svg">
<g clip-path="url(#clip0_4033_432)">
<path d="M12.4436 5.28563C12.1165 5.42785 11.7654 5.52563 11.3965 5.5683C11.7734 5.34608 12.0614 4.99408 12.1982 4.57541C11.8391 4.78471 11.4472 4.93196 11.0391 5.01097C10.8675 4.83103 10.6609 4.68795 10.4322 4.59045C10.2034 4.49295 9.95715 4.44307 9.70847 4.44386C8.70135 4.44386 7.88535 5.2483 7.88535 6.23941C7.88535 6.37985 7.90135 6.51674 7.93247 6.6483C7.21009 6.61399 6.50279 6.42949 5.85571 6.10656C5.20862 5.78363 4.63595 5.32936 4.17424 4.77274C4.01208 5.04572 3.9267 5.35745 3.92713 5.67497C3.92713 6.29719 4.2498 6.8483 4.73869 7.16918C4.44931 7.16011 4.16612 7.08307 3.91202 6.9443V6.96652C3.91477 7.38382 4.06207 7.78726 4.32884 8.10816C4.59561 8.42907 4.96536 8.64759 5.37513 8.72652C5.10612 8.79765 4.82464 8.80797 4.55113 8.75674C4.67036 9.11573 4.8984 9.4287 5.2036 9.65218C5.5088 9.87566 5.87601 9.99857 6.25424 10.0038C5.60532 10.5039 4.80859 10.7741 3.98935 10.7718C3.84269 10.7718 3.6978 10.763 3.55469 10.747C4.39066 11.2761 5.35999 11.5564 6.34935 11.555C9.70402 11.555 11.5378 8.81896 11.5378 6.44563L11.5316 6.21274C11.8892 5.96144 12.1982 5.64731 12.4436 5.28563Z" fill="#CFCFCF"/>
<path d="M8 14.4C9.69739 14.4 11.3253 13.7257 12.5255 12.5255C13.7257 11.3253 14.4 9.69739 14.4 8C14.4 6.30261 13.7257 4.67475 12.5255 3.47452C11.3253 2.27428 9.69739 1.6 8 1.6C6.30261 1.6 4.67475 2.27428 3.47452 3.47452C2.27428 4.67475 1.6 6.30261 1.6 8C1.6 9.69739 2.27428 11.3253 3.47452 12.5255C4.67475 13.7257 6.30261 14.4 8 14.4ZM8 16C3.5816 16 0 12.4184 0 8C0 3.5816 3.5816 0 8 0C12.4184 0 16 3.5816 16 8C16 12.4184 12.4184 16 8 16Z" fill="#CFCFCF"/>
</g>
<defs>
<clipPath id="clip0_4033_432">
<rect width="16" height="16" fill="white"/>
</clipPath>
</defs>
</svg>
